<?xml version="1.0" encoding="UTF-8"?>
<svg id="Layer_2" data-name="Layer 2" xmlns="http://www.w3.org/2000/svg" xmlns:xlink="http://www.w3.org/1999/xlink" viewBox="0 0 208.98 191.15">
  <defs>
    <style>
      .cls-1 {
        fill: #fff;
        fill-rule: evenodd;
      }

      .cls-1, .cls-2 {
        stroke-width: 0px;
      }

      .cls-2 {
        fill: url(#radial-gradient);
      }
    </style>
    <radialGradient id="radial-gradient" cx="104.49" cy="95.57" fx="104.49" fy="95.57" r="100.13" gradientTransform="translate(208.98 191.15) rotate(180)" gradientUnits="userSpaceOnUse">
      <stop offset="0" stop-color="#36b3dc"/>
      <stop offset="1" stop-color="#1573d3"/>
    </radialGradient>
  </defs>
  <g id="Layer_1-2" data-name="Layer 1">
    <g>
      <path class="cls-2" d="m90.1,0h78.84C191.03,0,208.98,17.94,208.98,40.04v61.01c0,49.73-40.37,90.1-90.1,90.1H40.04C17.94,191.15,0,173.2,0,151.1v-61.01C0,40.37,40.37,0,90.1,0Z" transform="translate(208.98 191.15) rotate(-180)"/>
      <g>
        <path class="cls-1" d="m103.06,54.12l-4.48,32.29c-.04.14,0,.25.04.4,1.94-1.34,4.23-2.1,6.88-2.1,1.79,0,3.37.54,4.69,1.45l4.44-31.71c.07-.72-.5-1.38-1.22-1.38h-9.17c-.61,0-1.11.43-1.18,1.05h0Z"/>
        <path class="cls-1" d="m116.6,44.31c-.82,3.51-3.98,6.15-7.28,6.15s-5.81-2.86-4.98-6.37c.82-3.55,3.55-6.37,7.45-6.37,3.3,0,5.63,3.08,4.8,6.59h0Z"/>
        <path class="cls-1" d="m109.4,95.6c-.82,3.51-3.98,6.12-7.28,6.12s-5.84-2.82-4.98-6.37c.82-3.51,3.55-6.37,7.45-6.37,3.3,0,5.63,3.11,4.8,6.62h0Z"/>
        <path class="cls-1" d="m158.97,137.63c-.72,3.47-3.87,6.08-7.35,6.08s-6.27-2.82-5.55-6.3c.68-3.47,3.4-6.3,7.53-6.3,3.48,0,6.06,3.04,5.38,6.52h0Z"/>
        <path class="cls-1" d="m71.74,120.32h-6.2c-.22,0-.39-.25-.32-.47l5.41-13.79c.11-.25.5-.18.5.07l1.22,13.5c.04.36-.25.69-.61.69m15.02,17.3l-6.92-41.7c-.29-1.81-1.86-3.15-3.69-3.15h-6.95c-2.11,0-4.05,1.23-4.91,3.19l-18.67,41.74c-.25.62.18,1.27.86,1.27l9.68-.04c.65,0,1.25-.4,1.51-1.01l3.23-7.64c.11-.22.29-.33.54-.33h11.72c.29,0,.54.22.54.51l.72,7.2c.07.83.79,1.48,1.61,1.48h9.5c.79,0,1.4-.72,1.25-1.52h0Z"/>
        <path class="cls-1" d="m82.13,145.19l2.26,6.95c.39,1.16.72,1.41,1.51,1.23,2.8-.58,9.64-2.61,12.97-7.17,4.37-5.94,4.95-16.43,5.73-21.75.65-4.38,2.01-15.2,2.47-18.86.11-.69-.43-1.27-1.08-1.27h-8.67c-.79,0-1.43.58-1.54,1.34-.68,5.21-3.23,23.85-3.66,26.46-.5,3-.61,7.31-5.05,9.92-2.19,1.3-3.33,1.52-4.19,1.95-.47.18-.97.43-.75,1.19h0Z"/>
        <path class="cls-1" d="m129.94,129.12s-4.52,1.56-6.7-.07c-2.15-1.67-2.33-5.03-1.08-9.85,1.25-4.85,4.44-5.65,5.81-5.76,1.36-.11,3.91.54,3.91.54l-1.94,15.13Zm12.54-23.53c-2.9-.76-7.85-2.35-15.77-1.77-7.31.54-15.55,3.95-17.09,18.46-1.54,14.52,5.05,17.3,14.51,17.7,6.95.33,12.4-1.59,14.84-2.64.82-.36,1.43-1.16,1.54-2.06l3.51-27.94c.11-1.12-.43-1.48-1.54-1.74h0Z"/>
        <path class="cls-1" d="m149.25,126.48l2.54-26.75c.11-.98.9-1.34,1.86-1.34h8.78c.82,0,1.15.62.93,1.63l-5.38,26.79c-.11.54-.54.9-1.08.9h-6.56c-.68,0-1.18-.58-1.11-1.23h0Z"/>
        <path class="cls-1" d="m60.7,87.35h9.75c.75,0,1.51-.65,1.61-1.38l2.11-15.78h17.31c.47,0,.97-.43,1.04-.9l1.18-9.09c.07-.51-.25-.83-.72-.83h-17.38l.68-5.07c.18-1.23,1.43-2.32,2.65-2.32h17.13c.47,0,.97-.43,1.04-.9l1.18-9.09c.07-.47-.25-.83-.72-.83h-19.35c-5.77,0-12.62,4.74-13.4,10.5l-5.05,34.64c-.07.62.32,1.05.93,1.05h0Z"/>
        <path class="cls-1" d="m144.95,53.07h-7.06l1.36-9.7c.07-.76-.47-1.41-1.22-1.41l-9.57,3c-.61,0-1.11.47-1.22,1.05l-.97,7.06h-.75c-2.8,0-5.09,2.1-5.38,4.89l-.18,2.1c-.04.33.04.62.25.83.22.25.5.36.82.36h4.12l-2.44,17.41c-.36,2.57.36,4.96,2.04,6.91,3.83,4.49,12.94,3.29,18.49,2.17.54-.11.93-.62.86-1.16l-.72-7.49c-.07-.54-.54-.98-1.08-.98-1.65,0-8.17,1.85-7.63-1.95l2.04-14.91h7.63c.54,0,1-.43,1.08-.98l.57-6.01c.04-.33-.07-.62-.29-.87-.22-.22-.47-.33-.79-.33h0Z"/>
      </g>
    </g>
  </g>
</svg>