<svg width="26" height="24" viewBox="0 0 26 24" fill="none" xmlns="http://www.w3.org/2000/svg">
<path d="M18.1459 24H4.08554C1.44295 24 -0.357891 21.8911 0.0601118 19.2887L2.28755 5.44243C2.70555 2.84008 5.18781 0.73114 7.83039 0.73114H21.8879C24.5305 0.73114 26.3314 2.84008 25.9134 5.44243L23.6859 19.2859C23.2679 21.8882 20.7857 23.9972 18.1431 23.9972L18.1459 24Z" fill="url(#paint0_radial_1_21)"/>
<path d="M8.17573 18.4136C8.51882 17.5979 8.12548 16.6628 7.29718 16.3249C6.46888 15.987 5.51928 16.3744 5.17618 17.1901C4.83309 18.0057 5.22643 18.9409 6.05473 19.2788C6.88303 19.6166 7.83263 19.2293 8.17573 18.4136Z" fill="white"/>
<path d="M11.9789 4.45845C12.4122 4.45845 12.7634 4.11257 12.7634 3.68592C12.7634 3.25926 12.4122 2.91339 11.9789 2.91339C11.5457 2.91339 11.1945 3.25926 11.1945 3.68592C11.1945 4.11257 11.5457 4.45845 11.9789 4.45845Z" fill="white"/>
<path d="M14.1634 4.45845C14.5967 4.45845 14.9479 4.11257 14.9479 3.68592C14.9479 3.25926 14.5967 2.91339 14.1634 2.91339C13.7302 2.91339 13.379 3.25926 13.379 3.68592C13.379 4.11257 13.7302 4.45845 14.1634 4.45845Z" fill="white"/>
<path d="M10.5446 10.8191C10.5503 10.8473 10.556 10.8783 10.5646 10.9065C11.3319 10.571 12.1794 10.3849 13.0726 10.3849C13.9659 10.3849 14.8191 10.5738 15.5892 10.9122C15.5921 10.8981 15.595 10.8811 15.5978 10.867L15.7066 10.1763C14.8935 9.84639 14.006 9.66309 13.0726 9.66309C12.1393 9.66309 11.2517 9.84639 10.4386 10.1763L10.5446 10.8191Z" fill="white"/>
<path d="M17.5418 11.2759C17.4932 11.5296 17.4273 11.7975 17.35 12.0738C18.5382 13.1875 19.2825 14.7607 19.2825 16.5031C19.2825 17.6619 18.9504 18.7925 18.3234 19.7709C18.3148 19.785 17.4674 21.0988 16.1561 21.0988C14.6502 21.0988 13.6338 20.4644 13.4305 19.4043C13.3675 19.0716 13.3389 18.6826 13.3303 18.2878C13.3303 18.2878 13.3303 18.2878 13.3303 18.285C13.3303 18.2314 13.3303 18.1779 13.3303 18.1243C13.3761 17.0247 14.736 15.6037 14.736 15.6037C15.8555 14.5718 16.6514 12.6292 16.9406 11.1011L17.5705 7.058C17.7594 6.09938 17.5132 5.16333 16.8747 4.42182C16.5254 4.01582 16.0759 3.68876 15.5577 3.44629C15.5721 3.52523 15.5806 3.607 15.5806 3.69158C15.5806 3.87766 15.5434 4.05247 15.4747 4.216C15.8011 4.39644 16.0845 4.622 16.3136 4.88984C16.8146 5.47065 16.9978 6.17551 16.849 6.9283L16.2191 10.977C15.8584 12.8858 14.5557 15.6065 13.1242 15.6065C13.1156 15.6065 13.1041 15.6065 13.0927 15.6065C11.644 15.4994 10.3041 12.7815 9.92613 10.9375L9.29913 7.13976V7.12284C9.15598 6.47437 9.31344 5.83154 9.75149 5.25919C10.0092 4.92086 10.3527 4.62764 10.7593 4.38798C10.639 4.18216 10.5675 3.94533 10.5675 3.69158C10.5675 3.68312 10.5675 3.67466 10.5675 3.66621C10.0006 3.97071 9.51672 4.36261 9.16457 4.825C8.60627 5.55523 8.39727 6.4208 8.57764 7.26381L9.20465 11.0588V11.0729C9.50241 12.5334 10.3069 14.4393 11.4235 15.5079C12.3168 16.3396 12.6002 18.2907 12.6002 18.2907C12.6088 18.7249 12.6403 19.1619 12.7119 19.5397C12.9839 20.9691 14.2722 21.8234 16.1561 21.8234C17.8797 21.8234 18.9046 20.222 18.9447 20.1571C19.6462 19.066 20.0155 17.8029 20.0155 16.5059C20.0155 14.4111 19.0535 12.5334 17.5418 11.2787V11.2759Z" fill="white"/>
<path d="M6.18417 15.6404C6.34164 15.6065 6.50769 15.5868 6.67661 15.5868C6.7625 15.5868 6.84553 15.5924 6.92856 15.6009C7.13756 14.2137 7.82183 12.9788 8.80957 12.0568C8.72655 11.7834 8.6607 11.5183 8.6063 11.2674C7.30362 12.3472 6.40749 13.8923 6.18417 15.6375V15.6404Z" fill="white"/>
<defs>
<radialGradient id="paint0_radial_1_21" cx="0" cy="0" r="1" gradientUnits="userSpaceOnUse" gradientTransform="translate(12.9867 12.3642) scale(12.4141 12.2251)">
<stop stop-color="#36B3DC"/>
<stop offset="1" stop-color="#1573D3"/>
</radialGradient>
</defs>
</svg>
