<svg width="41" height="35" viewBox="0 0 41 35" fill="none" xmlns="http://www.w3.org/2000/svg">
<path d="M41 10.5C41 4.70096 36.4109 0 30.7499 0C27.0536 0 23.8148 2.00433 22.0113 5.00966C21.8663 5.29162 21.6489 5.52766 21.3825 5.69231C21.1161 5.85697 20.8109 5.944 20.4998 5.944C20.1887 5.944 19.8836 5.85697 19.6172 5.69231C19.3508 5.52766 19.1334 5.29162 18.9885 5.00966C17.1854 2.00433 13.9463 0 10.25 0C4.58904 0 0 4.70096 0 10.5V14C0 21 10.25 35 20.4999 35C24.5088 35 29.3682 31.8034 33.349 27.7011L27.5513 23.0533C24.8491 25.9467 22.0085 27.9999 20.4999 27.9999C17.0834 27.9999 6.83332 17.5 6.83332 10.5C6.83344 9.82995 7.02126 9.17412 7.37451 8.61023C7.72776 8.04634 8.23158 7.59818 8.82613 7.31897C9.42067 7.03974 10.081 6.94121 10.7286 7.03506C11.3762 7.12891 11.9838 7.4112 12.4795 7.84839C12.5023 7.86823 12.525 7.88876 12.5478 7.90929L12.5781 7.93776C12.6039 7.96219 12.6293 7.98707 12.6542 8.01242C12.6596 8.01803 12.6653 8.0234 12.6706 8.02899C12.6989 8.05855 12.7273 8.08888 12.7556 8.11999C12.766 8.13166 12.7763 8.14333 12.7865 8.15522C12.8042 8.1753 12.8221 8.19559 12.8394 8.21636C12.8567 8.23712 12.872 8.25509 12.8878 8.27492L12.8947 8.28332C12.9161 8.31016 12.9373 8.33769 12.9583 8.36522L12.9665 8.37643C12.9838 8.39976 13.0011 8.4231 13.0179 8.44642C13.0225 8.45273 13.027 8.45903 13.0314 8.46556C13.0505 8.49286 13.0692 8.52016 13.0874 8.54816L13.0933 8.55726C13.1097 8.58246 13.1257 8.60789 13.1417 8.63332L13.1546 8.6548C13.1719 8.6835 13.189 8.71219 13.2056 8.74136L14.2434 10.4244L15.6722 12.7413C16.1794 13.5863 16.8892 14.284 17.7343 14.7681C18.5795 15.2521 19.5315 15.5061 20.4997 15.5061C21.468 15.5061 22.42 15.2521 23.2651 14.7681C24.1102 14.284 24.8201 13.5863 25.3273 12.7413L26.7568 10.4235L27.7939 8.74136C27.8103 8.71243 27.8274 8.68396 27.8444 8.65573C27.849 8.64803 27.8538 8.64033 27.8585 8.6324C27.8741 8.60696 27.89 8.58199 27.9062 8.55703L27.9121 8.54769C27.9303 8.51993 27.949 8.49239 27.9681 8.46533L27.9814 8.44642C27.9987 8.42193 28.0164 8.39743 28.0344 8.37339L28.0408 8.36452C28.0616 8.33723 28.0827 8.30993 28.1041 8.28309L28.113 8.2719C28.1278 8.25369 28.1431 8.2355 28.1586 8.21753C28.174 8.19956 28.1936 8.17647 28.2111 8.15639C28.2226 8.14333 28.234 8.1305 28.2453 8.11766C28.2708 8.08966 28.2968 8.06166 28.3232 8.03436L28.359 7.99843C28.3792 7.97813 28.3995 7.95806 28.4203 7.93822C28.4328 7.9261 28.4455 7.91489 28.4583 7.90276C28.479 7.8834 28.5002 7.86426 28.5216 7.84536C29.0174 7.40836 29.6254 7.12634 30.273 7.0328C30.9207 6.93926 31.581 7.03814 32.1754 7.31768C32.7699 7.59722 33.2735 8.04569 33.6265 8.6098C33.9795 9.17391 34.1669 9.82995 34.1666 10.5C34.1666 12.0712 33.6452 13.8238 32.8 15.596L37.2942 14.7838C37.5202 14.7388 37.7528 14.741 37.978 14.7904C38.2031 14.8398 38.4161 14.9352 38.6044 15.0711C38.7926 15.207 38.952 15.3804 39.0732 15.581C39.1942 15.7816 39.2745 16.0052 39.3092 16.2384C39.3219 16.3251 39.3283 16.4127 39.3283 16.5004C39.3283 16.527 39.3283 16.5535 39.3265 16.5801L39.4631 19.3067C40.4341 17.353 41 15.5129 41 14V10.5Z" fill="url(#paint0_linear_4_45)"/>
<path d="M37.9906 27.1078L37.5747 18.8786C37.5759 18.8515 37.5768 18.8242 37.5768 18.7967C37.5768 18.7067 37.5702 18.6167 37.557 18.5277C37.4938 18.1029 37.2831 17.7151 36.9632 17.4349C36.6432 17.1546 36.2351 17.0003 35.8129 17C35.6998 17.0001 35.5871 17.0112 35.476 17.0331L27.1982 18.5181C26.8584 18.5661 26.5396 18.7138 26.2808 18.9432C26.0222 19.1727 25.8348 19.4738 25.7416 19.8099C25.6485 20.146 25.6536 20.5024 25.7563 20.8357C25.859 21.1689 26.055 21.4643 26.32 21.6861L26.3348 21.6978C26.3518 21.712 26.3687 21.7256 26.3864 21.739L27.6339 22.7339C26.8374 23.5848 25.9961 24.391 25.1135 25.1487C22.6602 27.3001 19.6734 28.7241 16.4791 29.2653C13.2847 29.8065 10.0057 29.444 7 28.2174C10.8048 32.0823 15.5768 35 20.3488 35C22.5166 35 24.9244 34.1016 27.3159 32.6415C29.4959 31.3114 31.663 29.5147 33.6239 27.5067L35.0734 28.6614C35.3412 28.9002 35.6737 29.0509 36.0271 29.0938C36.3807 29.1366 36.7387 29.0697 37.054 28.9016C37.3695 28.7335 37.6275 28.4723 37.7944 28.1522C37.9612 27.8321 38.0289 27.468 37.9887 27.108L37.9906 27.1078Z" fill="url(#paint1_linear_4_45)"/>
<path d="M30.7506 0C30.7184 0 30.6864 0 30.6543 0C30.6022 0 30.5502 0.00113062 30.4983 0.00225111H30.4914L30.4054 0.00473434C30.3525 0.00654124 30.2999 0.00858031 30.2472 0.0112856C30.1947 0.0139909 30.1363 0.0169283 30.081 0.0205421C30.0621 0.0216727 30.0434 0.0228033 30.0247 0.0243781C29.9881 0.0266392 29.9518 0.0293445 29.9151 0.032504C29.9002 0.032504 29.8853 0.0347652 29.8696 0.0358958L29.8077 0.0415387C29.7848 0.0433456 29.7621 0.0455966 29.7393 0.0478577C29.7165 0.0501189 29.6937 0.05237 29.6723 0.0546311H29.6653L29.5856 0.0632114L29.5316 0.0695305C29.5145 0.0713374 29.4974 0.0735986 29.4806 0.0756275L29.4577 0.078565C29.435 0.0812703 29.4122 0.0844299 29.3894 0.0875894L29.3304 0.0952713L29.2703 0.103841C29.2523 0.106325 29.2341 0.108808 29.2161 0.111745L29.1594 0.120326L29.1056 0.128674L29.0943 0.130481L29.0191 0.143129L28.9508 0.154415L28.8824 0.166609L28.827 0.176764L28.7762 0.186474L28.6967 0.202272L28.6175 0.218534L28.5396 0.235241C28.494 0.245396 28.4462 0.256005 28.3997 0.266614L28.3391 0.280837C28.2253 0.308385 28.1114 0.337275 27.9988 0.368437L27.9305 0.387848L27.9129 0.392815C27.8623 0.407108 27.8119 0.422159 27.7617 0.437967C27.7269 0.448354 27.6923 0.458963 27.6579 0.469795C27.6138 0.483493 27.57 0.497565 27.5264 0.51201C27.4226 0.546028 27.3193 0.581692 27.2169 0.619021C27.1496 0.643399 27.0827 0.668615 27.0162 0.694648C26.9497 0.720692 26.8836 0.747028 26.8183 0.773668L26.761 0.797369C26.736 0.807756 26.7109 0.818366 26.6861 0.829197C26.6444 0.847034 26.6027 0.865093 26.5616 0.883606C26.5387 0.893539 26.516 0.903704 26.4932 0.914081C26.4704 0.924468 26.4454 0.936662 26.4214 0.947049C26.4021 0.95562 26.3829 0.964654 26.364 0.973689C26.2857 1.01055 26.2078 1.04819 26.1306 1.08656C26.1092 1.0974 26.0878 1.10914 26.0666 1.11907C26.0184 1.14346 25.9707 1.16814 25.9235 1.19312L25.8575 1.22856L25.7941 1.26424C25.7695 1.27755 25.7449 1.29132 25.7205 1.3051C25.6961 1.31887 25.6749 1.33038 25.6522 1.34348C25.5884 1.3796 25.5251 1.41654 25.4623 1.45432L25.4212 1.47892L25.3816 1.50308C25.3147 1.54402 25.2482 1.58563 25.1823 1.62793L25.117 1.6706C24.9196 1.79927 24.7277 1.9342 24.5415 2.07537C24.5237 2.0887 24.506 2.10201 24.4885 2.11556C24.4168 2.17049 24.346 2.22626 24.2761 2.28285C24.2562 2.29888 24.2363 2.31536 24.2163 2.33161C24.1395 2.39459 24.0632 2.45893 23.9885 2.52441C23.9714 2.53908 23.9546 2.55375 23.9379 2.56956L23.8796 2.62125L23.8459 2.65174C23.8288 2.66686 23.812 2.68243 23.7951 2.69688C23.7158 2.76928 23.6377 2.84303 23.5607 2.91813C23.5418 2.93663 23.5227 2.95538 23.5039 2.97411C23.4853 2.99285 23.4659 3.01181 23.4475 3.03055L23.3913 3.08744L23.3354 3.14501C23.2985 3.18339 23.262 3.22207 23.2256 3.26105L23.1764 3.3141C23.1675 3.32381 23.1584 3.33329 23.1498 3.34299L23.1081 3.38815C23.0933 3.40441 23.0785 3.42088 23.0642 3.43713L23.0359 3.46897C23.0083 3.50012 22.9806 3.53173 22.9534 3.56333C22.8855 3.64205 22.8189 3.72182 22.7537 3.80264C22.7366 3.82318 22.72 3.84395 22.7036 3.86495C22.6552 3.92522 22.6081 3.98618 22.5616 4.04713C22.5336 4.08393 22.5061 4.12073 22.4783 4.15798C22.4288 4.2257 22.3797 4.29343 22.3316 4.36116C22.3166 4.38374 22.3017 4.40383 22.2872 4.42528C22.2427 4.48969 22.1991 4.55441 22.1564 4.61942V4.62055C22.1323 4.65735 22.1081 4.69437 22.0844 4.73186C22.0608 4.76933 22.0364 4.80725 22.0127 4.84473C22.0038 4.86166 21.9947 4.87837 21.9852 4.89462C21.9661 4.92788 21.9461 4.96016 21.925 4.99147C21.9148 5.00682 21.904 5.02217 21.8931 5.03663V5.03798C21.8826 5.05242 21.8719 5.06687 21.8612 5.08087L21.8578 5.08516C21.8487 5.09712 21.8394 5.10909 21.8296 5.1206C21.8276 5.12351 21.8254 5.12622 21.8229 5.12873C21.8125 5.1416 21.8018 5.15424 21.7906 5.16665C21.6306 5.34878 21.4331 5.49487 21.2114 5.59512C20.9898 5.69538 20.749 5.74749 20.5054 5.74793C20.2617 5.74838 20.0208 5.69717 19.7988 5.59773C19.5767 5.4983 19.3787 5.35293 19.2181 5.1714C19.2071 5.1592 19.1952 5.14656 19.1859 5.13415C19.1766 5.12173 19.1693 5.11406 19.1613 5.10367C19.1591 5.10074 19.1565 5.09803 19.1545 5.09509C19.149 5.0881 19.1433 5.08109 19.1381 5.07387C19.1328 5.06665 19.1244 5.05604 19.1178 5.047C19.1112 5.03798 19.1094 5.03526 19.1055 5.0294C19.1016 5.02352 19.093 5.01224 19.0875 5.00344C19.0837 4.99825 19.0802 4.99283 19.0766 4.98763C19.0679 4.97454 19.0595 4.96167 19.0513 4.94857C19.0431 4.93548 19.0314 4.91585 19.0217 4.89936C19.0153 4.88852 19.0092 4.87679 19.0035 4.86663C19.0016 4.86369 19.0001 4.86053 18.9982 4.85737C18.9964 4.85421 18.9936 4.84924 18.9916 4.84519C18.9634 4.80003 18.9348 4.75488 18.9059 4.70973L18.8484 4.62055V4.61942C18.8242 4.5824 18.7996 4.54582 18.7747 4.50903C18.7598 4.48645 18.7447 4.46388 18.7292 4.44288C18.7138 4.42189 18.7 4.40021 18.685 4.37877C18.6084 4.26905 18.5294 4.16069 18.4481 4.05368L18.3996 3.99024C18.367 3.94802 18.3342 3.90626 18.3007 3.86449C18.284 3.84358 18.2674 3.8228 18.2508 3.80219C18.2017 3.74199 18.1519 3.68178 18.1017 3.62158L18.0459 3.55634C18.0285 3.53632 18.011 3.51622 17.9932 3.49606C17.9757 3.4762 17.9582 3.4561 17.9403 3.43623C17.926 3.41998 17.9115 3.4035 17.8967 3.38725C17.8819 3.37099 17.8688 3.35654 17.855 3.34209L17.8281 3.31319C17.8119 3.29537 17.7953 3.27775 17.7789 3.26015C17.7625 3.24253 17.7424 3.22109 17.7242 3.20167C17.6875 3.16307 17.6504 3.12469 17.6133 3.08653C17.5946 3.0678 17.576 3.04861 17.5572 3.02965L17.5008 2.97321L17.4438 2.91722L17.3862 2.86146C17.3282 2.80547 17.2689 2.75039 17.2094 2.69598C17.1903 2.67838 17.1714 2.66099 17.1521 2.6436C17.1125 2.60794 17.0727 2.57257 17.0324 2.5375C17.0131 2.52034 16.9933 2.50341 16.9737 2.48625L16.9112 2.4332C16.8933 2.41785 16.8755 2.40273 16.8576 2.38805C16.8347 2.36864 16.812 2.34945 16.7892 2.3307L16.7273 2.28014C16.4583 2.06303 16.1785 1.8596 15.8888 1.6706L15.8229 1.62815C15.757 1.58601 15.6907 1.5444 15.6239 1.50331L15.5803 1.47938C15.5669 1.47102 15.5532 1.46289 15.5394 1.45477C15.4765 1.41715 15.4132 1.3802 15.3493 1.34392C15.3266 1.33083 15.3039 1.31819 15.281 1.30554C15.2583 1.2929 15.232 1.27801 15.2075 1.26468L15.1432 1.22969L15.0772 1.19425C14.972 1.13856 14.8656 1.08461 14.7583 1.03238C14.7341 1.02042 14.7097 1.00981 14.6854 0.997168C14.661 0.98452 14.643 0.976848 14.6216 0.967137C14.5449 0.930787 14.4671 0.8958 14.3893 0.861711C14.3649 0.851102 14.3403 0.83913 14.3157 0.829873C14.291 0.820627 14.2655 0.808433 14.2405 0.798046C14.2154 0.787658 14.1904 0.777049 14.1653 0.766894C14.1402 0.756729 14.115 0.746352 14.0897 0.736419C14.0644 0.726486 14.0442 0.718582 14.0227 0.70978L13.9772 0.692397L13.9216 0.671169C13.8971 0.661468 13.8722 0.652211 13.8472 0.643177C13.7241 0.598024 13.5999 0.554527 13.4743 0.512686C13.4237 0.496212 13.3734 0.47996 13.3224 0.464152C13.2425 0.43932 13.1619 0.415386 13.0809 0.39236C13.0545 0.384689 13.0281 0.377158 13.0016 0.369789C12.8897 0.338779 12.7771 0.309889 12.6638 0.283098L12.6003 0.267967C12.5521 0.256681 12.5037 0.24585 12.4549 0.235463C12.4322 0.230042 12.4073 0.225076 12.3834 0.219887L12.3151 0.205664C12.2713 0.196629 12.2272 0.188049 12.1829 0.179923L12.1126 0.166609C12.0702 0.159159 12.0276 0.151477 11.985 0.144027L11.9167 0.132742L11.8484 0.121911L11.78 0.111745L11.7251 0.103619L11.6766 0.096846L11.6131 0.0903048L11.5427 0.0810483L11.5198 0.0783328L11.4686 0.0722358L11.4146 0.0659166L11.3349 0.0573364H11.3281C11.3053 0.0550853 11.2825 0.0526022 11.2611 0.0505631C11.2397 0.0485341 11.2156 0.0460508 11.1928 0.0442439L11.1311 0.0386012L11.0855 0.0352195C11.0481 0.03206 11.0108 0.0293445 10.9734 0.0268613L10.9199 0.0225712C10.8647 0.0189574 10.8092 0.0157978 10.7536 0.0133146C10.6981 0.0108314 10.6484 0.00858032 10.5955 0.00677342L10.5095 0.00315964H10.5026C10.4509 0.00315964 10.3989 0.00113059 10.3466 0.000898421C10.3145 0.00030285 10.2824 0 10.2502 0C4.58914 0 5.43913e-07 4.54854 5.43913e-07 10.159V12.9668C-0.000187266 12.4793 0.0482624 11.993 0.144643 11.5149C0.144643 11.5116 0.146237 11.5079 0.147148 11.5045C0.157854 11.4515 0.169927 11.3989 0.181088 11.3465C0.184732 11.3305 0.188605 11.3144 0.192477 11.2985C0.201816 11.2587 0.211383 11.2187 0.221406 11.179C0.225961 11.1605 0.230973 11.142 0.235755 11.1232C0.245551 11.0865 0.255118 11.0491 0.265368 11.0126C0.270834 10.9932 0.276301 10.9742 0.281996 10.9551C0.292246 10.9187 0.302723 10.8828 0.313658 10.8469C0.319352 10.828 0.325274 10.809 0.331196 10.79C0.342586 10.7541 0.353975 10.7182 0.36582 10.6823C0.371742 10.664 0.377892 10.6458 0.384042 10.6277C0.396343 10.591 0.409326 10.5543 0.422082 10.518C0.428232 10.501 0.434382 10.4842 0.440305 10.467C0.454427 10.4288 0.468778 10.3909 0.483355 10.3529C0.488822 10.3381 0.494517 10.3232 0.500211 10.3078C0.516383 10.2662 0.53324 10.2249 0.550095 10.184C1.65689 7.50323 4.31444 5.61478 7.41706 5.61478C8.91047 5.61226 10.3695 6.05883 11.6014 6.8955C11.6242 6.91085 11.647 6.92598 11.6686 6.94065C11.6903 6.95533 11.7167 6.97406 11.7404 6.99122C11.7641 7.00838 11.786 7.02396 11.8087 7.04066C11.8315 7.05737 11.8543 7.07408 11.877 7.09078L11.8791 7.09213L11.9445 7.1418C11.9693 7.16099 11.9943 7.18018 12.0191 7.20004C12.0388 7.21494 12.058 7.2303 12.0773 7.2452C12.0925 7.25716 12.1073 7.26935 12.1228 7.28155C12.1684 7.31856 12.214 7.35627 12.2583 7.39442C12.2743 7.40774 12.2903 7.42152 12.306 7.43551C12.3216 7.44951 12.3406 7.46554 12.3577 7.48066L12.4085 7.52581C12.4258 7.54117 12.4426 7.55652 12.4592 7.57096L12.4616 7.57322C12.5137 7.61679 12.564 7.66217 12.6135 7.70867C12.6308 7.72516 12.6481 7.74209 12.6652 7.75879L12.6772 7.77099C12.7041 7.79762 12.7304 7.82494 12.7561 7.85248C12.7665 7.86376 12.7766 7.87506 12.787 7.88657C12.8048 7.90621 12.8224 7.92562 12.8399 7.94549C12.8574 7.96536 12.8725 7.98342 12.8884 8.00238L12.892 8.00645L12.8952 8.01051C12.9046 8.02202 12.9141 8.03309 12.9233 8.04483C12.9415 8.0674 12.959 8.08998 12.9761 8.11255C12.9932 8.13513 13.0139 8.16245 13.032 8.18772L13.0581 8.22475C13.0683 8.23943 13.0786 8.25387 13.0886 8.26877C13.0986 8.28367 13.1089 8.29835 13.1182 8.31393C13.1275 8.3295 13.1342 8.33854 13.141 8.35095C13.1459 8.35779 13.1504 8.36487 13.1545 8.37217C13.1631 8.38595 13.1716 8.39972 13.18 8.41349C13.1884 8.42725 13.1968 8.44148 13.2053 8.45548L14.2426 10.083L15.6714 12.3247C15.7029 12.3748 15.7348 12.4247 15.7674 12.4737C15.8166 12.5474 15.8673 12.6197 15.9195 12.6909C15.9722 12.762 16.0258 12.832 16.0817 12.9007C16.1186 12.9458 16.1566 12.9909 16.1956 13.036C16.7275 13.652 17.3876 14.1464 18.1306 14.4854C18.8736 14.8245 19.6818 15 20.4998 15C21.3177 15 22.1259 14.8245 22.8689 14.4854C23.6119 14.1464 24.272 13.652 24.8039 13.036C24.8425 12.9909 24.8805 12.9458 24.9178 12.9007C24.9734 12.832 25.0274 12.7621 25.0798 12.6909C25.1146 12.6435 25.1488 12.5955 25.1825 12.5469C25.2326 12.4742 25.2811 12.4001 25.3279 12.3247L26.7567 10.083L27.7943 8.45457C27.8046 8.43764 27.8146 8.42071 27.8248 8.40401L27.8446 8.37172C27.8533 8.35795 27.8619 8.34418 27.871 8.33041C27.8722 8.32815 27.8738 8.32612 27.8751 8.32386C27.8881 8.30377 27.9016 8.28367 27.915 8.26404C27.9284 8.24439 27.9435 8.2225 27.958 8.20218C27.9727 8.18186 27.984 8.16605 27.9972 8.14822L28.0077 8.13422C28.0207 8.11684 28.0341 8.09924 28.0477 8.08185C28.0615 8.06447 28.0747 8.04776 28.0883 8.03083C28.0976 8.01954 28.1071 8.00825 28.1164 7.99719C28.13 7.98049 28.1441 7.96423 28.1583 7.9482C28.1758 7.92811 28.1933 7.90847 28.2111 7.88883C28.2216 7.87754 28.2316 7.86626 28.2423 7.85474C28.2799 7.8141 28.3189 7.7746 28.3588 7.73622C28.379 7.7168 28.3992 7.69693 28.42 7.67798C28.4325 7.66624 28.4453 7.65539 28.458 7.64343C28.479 7.62492 28.4999 7.60641 28.5213 7.58812C28.5271 7.58293 28.533 7.57774 28.5389 7.57299C29.909 6.30967 31.7116 5.60855 33.5829 5.61117C36.6858 5.61117 39.343 7.49963 40.4499 10.1805C40.467 10.2214 40.4837 10.2627 40.4998 10.3042C40.5057 10.3186 40.5112 10.3335 40.5169 10.3494C40.5312 10.3873 40.5456 10.4253 40.5597 10.4634C40.5659 10.4805 40.5717 10.4975 40.5778 10.5143C40.5908 10.5508 40.6036 10.5873 40.6162 10.6241C40.6223 10.6421 40.6282 10.6604 40.6342 10.6787C40.6463 10.7146 40.6569 10.7505 40.669 10.7864C40.6747 10.8054 40.6806 10.8243 40.6865 10.8433C40.6975 10.8792 40.7079 10.9151 40.7182 10.9514C40.7237 10.9706 40.7294 10.9896 40.7346 11.009C40.7448 11.0456 40.7545 11.0829 40.7645 11.1196C40.769 11.1384 40.774 11.1568 40.7788 11.1754C40.7888 11.2151 40.7982 11.2551 40.8075 11.2948C40.8114 11.3109 40.8152 11.3268 40.8189 11.3429C40.831 11.3955 40.8416 11.4481 40.8531 11.501C40.8531 11.5043 40.8546 11.5079 40.8554 11.5113C40.9518 11.9893 41.0002 12.4757 41 12.9631V10.159C41.0009 4.54854 36.4117 0 30.7506 0Z" fill="url(#paint2_linear_4_45)"/>
<path d="M30 6.89274C29.6906 7.09824 29.3972 7.32561 29.1222 7.57298C28.818 7.8232 28.5603 8.12202 28.3598 8.45658L27.3016 10.0836L25.845 12.3257C25.3276 13.1429 24.6032 13.8179 23.7408 14.286C22.8786 14.7542 21.9071 15 20.9192 15C19.9312 15 18.9598 14.7542 18.0974 14.286C17.2351 13.8179 16.5106 13.1429 15.9932 12.3257L14.5353 10.0845L13.4764 8.45658C13.2764 8.12305 13.0195 7.825 12.7166 7.57524C11.3187 6.31218 9.47934 5.61124 7.5699 5.61395C4.40411 5.61395 1.69248 7.5019 0.563153 10.182C0.545953 10.2229 0.528755 10.2642 0.512252 10.3057C0.506442 10.3202 0.500631 10.335 0.495054 10.3508C0.479559 10.3888 0.464916 10.4267 0.451126 10.4648C0.445084 10.4819 0.438808 10.4989 0.432532 10.5158C0.419517 10.5522 0.406269 10.5887 0.393719 10.6255C0.387443 10.6436 0.381168 10.6619 0.375125 10.6801C0.362807 10.7161 0.351883 10.7519 0.339798 10.7878C0.333754 10.8068 0.327712 10.8257 0.321901 10.8446C0.310745 10.8806 0.300053 10.9165 0.289595 10.9528C0.283784 10.972 0.278207 10.991 0.272628 11.0103C0.262169 11.0469 0.252408 11.0841 0.242414 11.1209C0.237533 11.1396 0.232419 11.1582 0.227771 11.1767C0.217545 11.2164 0.207783 11.2564 0.198253 11.296C0.194302 11.3121 0.190351 11.3281 0.186633 11.3442C0.174547 11.3968 0.163391 11.4493 0.152002 11.5021C0.152002 11.5055 0.150143 11.5091 0.149446 11.5125C0.0505251 11.9901 0.000466504 12.4761 0 12.9633V10.1563C0 4.54732 4.68256 0 10.4589 0C14.1311 0 17.3618 1.83852 19.2283 4.61999C19.2784 4.69522 19.3274 4.77045 19.3755 4.84568C19.3776 4.84974 19.3799 4.85381 19.3822 4.85787C19.4443 4.97048 19.5196 5.07581 19.6065 5.17181C20.9833 6.99679 23.2066 8.18169 25.7149 8.18169C27.2449 8.18455 28.7395 7.73497 30 6.89274Z" fill="url(#paint3_linear_4_45)"/>
<path d="M41 10.5C41 4.70096 36.4109 0 30.7499 0C27.0536 0 23.8148 2.00433 22.0113 5.00966C21.8663 5.29162 21.6489 5.52766 21.3825 5.69231C21.1161 5.85697 20.8109 5.944 20.4998 5.944C20.1887 5.944 19.8836 5.85697 19.6172 5.69231C19.3508 5.52766 19.1334 5.29162 18.9885 5.00966C17.1854 2.00433 13.9463 0 10.25 0C4.58904 0 0 4.70096 0 10.5V14C0 21 10.25 35 20.4999 35C24.5088 35 29.3682 31.8034 33.349 27.7011L27.5513 23.0533C24.8491 25.9467 22.0085 27.9999 20.4999 27.9999C17.0834 27.9999 6.83332 17.5 6.83332 10.5C6.83344 9.82995 7.02126 9.17412 7.37451 8.61023C7.72776 8.04634 8.23158 7.59818 8.82613 7.31897C9.42067 7.03974 10.081 6.94121 10.7286 7.03506C11.3762 7.12891 11.9838 7.4112 12.4795 7.84839C12.5023 7.86823 12.525 7.88876 12.5478 7.90929L12.5781 7.93776C12.6039 7.96219 12.6293 7.98707 12.6542 8.01242C12.6596 8.01803 12.6653 8.0234 12.6706 8.02899C12.6989 8.05855 12.7273 8.08888 12.7556 8.11999C12.766 8.13166 12.7763 8.14333 12.7865 8.15522C12.8042 8.1753 12.8221 8.19559 12.8394 8.21636C12.8567 8.23712 12.872 8.25509 12.8878 8.27492L12.8947 8.28332C12.9161 8.31016 12.9373 8.33769 12.9583 8.36522L12.9665 8.37643C12.9838 8.39976 13.0011 8.4231 13.0179 8.44642C13.0225 8.45273 13.027 8.45903 13.0314 8.46556C13.0505 8.49286 13.0692 8.52016 13.0874 8.54816L13.0933 8.55726C13.1097 8.58246 13.1257 8.60789 13.1417 8.63332L13.1546 8.6548C13.1719 8.6835 13.189 8.71219 13.2056 8.74136L14.2434 10.4244L15.6722 12.7413C16.1794 13.5863 16.8892 14.284 17.7343 14.7681C18.5795 15.2521 19.5315 15.5061 20.4997 15.5061C21.468 15.5061 22.42 15.2521 23.2651 14.7681C24.1102 14.284 24.8201 13.5863 25.3273 12.7413L26.7568 10.4235L27.7939 8.74136C27.8103 8.71243 27.8274 8.68396 27.8444 8.65573C27.849 8.64803 27.8538 8.64033 27.8585 8.6324C27.8741 8.60696 27.89 8.58199 27.9062 8.55703L27.9121 8.54769C27.9303 8.51993 27.949 8.49239 27.9681 8.46533L27.9814 8.44642C27.9987 8.42193 28.0164 8.39743 28.0344 8.37339L28.0408 8.36452C28.0616 8.33723 28.0827 8.30993 28.1041 8.28309L28.113 8.2719C28.1278 8.25369 28.1431 8.2355 28.1586 8.21753C28.174 8.19956 28.1936 8.17647 28.2111 8.15639C28.2226 8.14333 28.234 8.1305 28.2453 8.11766C28.2708 8.08966 28.2968 8.06166 28.3232 8.03436L28.359 7.99843C28.3792 7.97813 28.3995 7.95806 28.4203 7.93822C28.4328 7.9261 28.4455 7.91489 28.4583 7.90276C28.479 7.8834 28.5002 7.86426 28.5216 7.84536C29.0174 7.40836 29.6254 7.12634 30.273 7.0328C30.9207 6.93926 31.581 7.03814 32.1754 7.31768C32.7699 7.59722 33.2735 8.04569 33.6265 8.6098C33.9795 9.17391 34.1669 9.82995 34.1666 10.5C34.1666 12.0712 33.6452 13.8238 32.8 15.596L37.2942 14.7838C37.5202 14.7388 37.7528 14.741 37.978 14.7904C38.2031 14.8398 38.4161 14.9352 38.6044 15.0711C38.7926 15.207 38.952 15.3804 39.0732 15.581C39.1942 15.7816 39.2745 16.0052 39.3092 16.2384C39.3219 16.3251 39.3283 16.4127 39.3283 16.5004C39.3283 16.527 39.3283 16.5535 39.3265 16.5801L39.4631 19.3067C40.4341 17.353 41 15.5129 41 14V10.5Z" fill="url(#paint4_linear_4_45)"/>
<path d="M37.9906 27.1078L37.5747 18.8786C37.5759 18.8515 37.5768 18.8242 37.5768 18.7967C37.5768 18.7067 37.5702 18.6167 37.557 18.5277C37.4938 18.1029 37.2831 17.7151 36.9632 17.4349C36.6432 17.1546 36.2351 17.0003 35.8129 17C35.6998 17.0001 35.5871 17.0112 35.476 17.0331L27.1982 18.5181C26.8584 18.5661 26.5396 18.7138 26.2808 18.9432C26.0222 19.1727 25.8348 19.4738 25.7416 19.8099C25.6485 20.146 25.6536 20.5024 25.7563 20.8357C25.859 21.1689 26.055 21.4643 26.32 21.6861L26.3348 21.6978C26.3518 21.712 26.3687 21.7256 26.3864 21.739L27.6339 22.7339C26.8374 23.5848 25.9961 24.391 25.1135 25.1487C22.6602 27.3001 19.6734 28.7241 16.4791 29.2653C13.2847 29.8065 10.0057 29.444 7 28.2174C10.8048 32.0823 15.5768 35 20.3488 35C22.5166 35 24.9244 34.1016 27.3159 32.6415C29.4959 31.3114 31.663 29.5147 33.6239 27.5067L35.0734 28.6614C35.3412 28.9002 35.6737 29.0509 36.0271 29.0938C36.3807 29.1366 36.7387 29.0697 37.054 28.9016C37.3695 28.7335 37.6275 28.4723 37.7944 28.1522C37.9612 27.8321 38.0289 27.468 37.9887 27.108L37.9906 27.1078Z" fill="url(#paint5_linear_4_45)"/>
<path d="M30.7506 0C30.7184 0 30.6864 0 30.6543 0C30.6022 0 30.5502 0.00113062 30.4983 0.00225111H30.4914L30.4054 0.00473434C30.3525 0.00654124 30.2999 0.00858031 30.2472 0.0112856C30.1947 0.0139909 30.1363 0.0169283 30.081 0.0205421C30.0621 0.0216727 30.0434 0.0228033 30.0247 0.0243781C29.9881 0.0266392 29.9518 0.0293445 29.9151 0.032504C29.9002 0.032504 29.8853 0.0347652 29.8696 0.0358958L29.8077 0.0415387C29.7848 0.0433456 29.7621 0.0455966 29.7393 0.0478577C29.7165 0.0501189 29.6937 0.05237 29.6723 0.0546311H29.6653L29.5856 0.0632114L29.5316 0.0695305C29.5145 0.0713374 29.4974 0.0735986 29.4806 0.0756275L29.4577 0.078565C29.435 0.0812703 29.4122 0.0844299 29.3894 0.0875894L29.3304 0.0952713L29.2703 0.103841C29.2523 0.106325 29.2341 0.108808 29.2161 0.111745L29.1594 0.120326L29.1056 0.128674L29.0943 0.130481L29.0191 0.143129L28.9508 0.154415L28.8824 0.166609L28.827 0.176764L28.7762 0.186474L28.6967 0.202272L28.6175 0.218534L28.5396 0.235241C28.494 0.245396 28.4462 0.256005 28.3997 0.266614L28.3391 0.280837C28.2253 0.308385 28.1114 0.337275 27.9988 0.368437L27.9305 0.387848L27.9129 0.392815C27.8623 0.407108 27.8119 0.422159 27.7617 0.437967C27.7269 0.448354 27.6923 0.458963 27.6579 0.469795C27.6138 0.483493 27.57 0.497565 27.5264 0.51201C27.4226 0.546028 27.3193 0.581692 27.2169 0.619021C27.1496 0.643399 27.0827 0.668615 27.0162 0.694648C26.9497 0.720692 26.8836 0.747028 26.8183 0.773668L26.761 0.797369C26.736 0.807756 26.7109 0.818366 26.6861 0.829197C26.6444 0.847034 26.6027 0.865093 26.5616 0.883606C26.5387 0.893539 26.516 0.903704 26.4932 0.914081C26.4704 0.924468 26.4454 0.936662 26.4214 0.947049C26.4021 0.95562 26.3829 0.964654 26.364 0.973689C26.2857 1.01055 26.2078 1.04819 26.1306 1.08656C26.1092 1.0974 26.0878 1.10914 26.0666 1.11907C26.0184 1.14346 25.9707 1.16814 25.9235 1.19312L25.8575 1.22856L25.7941 1.26424C25.7695 1.27755 25.7449 1.29132 25.7205 1.3051C25.6961 1.31887 25.6749 1.33038 25.6522 1.34348C25.5884 1.3796 25.5251 1.41654 25.4623 1.45432L25.4212 1.47892L25.3816 1.50308C25.3147 1.54402 25.2482 1.58563 25.1823 1.62793L25.117 1.6706C24.9196 1.79927 24.7277 1.9342 24.5415 2.07537C24.5237 2.0887 24.506 2.10201 24.4885 2.11556C24.4168 2.17049 24.346 2.22626 24.2761 2.28285C24.2562 2.29888 24.2363 2.31536 24.2163 2.33161C24.1395 2.39459 24.0632 2.45893 23.9885 2.52441C23.9714 2.53908 23.9546 2.55375 23.9379 2.56956L23.8796 2.62125L23.8459 2.65174C23.8288 2.66686 23.812 2.68243 23.7951 2.69688C23.7158 2.76928 23.6377 2.84303 23.5607 2.91813C23.5418 2.93663 23.5227 2.95538 23.5039 2.97411C23.4853 2.99285 23.4659 3.01181 23.4475 3.03055L23.3913 3.08744L23.3354 3.14501C23.2985 3.18339 23.262 3.22207 23.2256 3.26105L23.1764 3.3141C23.1675 3.32381 23.1584 3.33329 23.1498 3.34299L23.1081 3.38815C23.0933 3.40441 23.0785 3.42088 23.0642 3.43713L23.0359 3.46897C23.0083 3.50012 22.9806 3.53173 22.9534 3.56333C22.8855 3.64205 22.8189 3.72182 22.7537 3.80264C22.7366 3.82318 22.72 3.84395 22.7036 3.86495C22.6552 3.92522 22.6081 3.98618 22.5616 4.04713C22.5336 4.08393 22.5061 4.12073 22.4783 4.15798C22.4288 4.2257 22.3797 4.29343 22.3316 4.36116C22.3166 4.38374 22.3017 4.40383 22.2872 4.42528C22.2427 4.48969 22.1991 4.55441 22.1564 4.61942V4.62055C22.1323 4.65735 22.1081 4.69437 22.0844 4.73186C22.0608 4.76933 22.0364 4.80725 22.0127 4.84473C22.0038 4.86166 21.9947 4.87837 21.9852 4.89462C21.9661 4.92788 21.9461 4.96016 21.925 4.99147C21.9148 5.00682 21.904 5.02217 21.8931 5.03663V5.03798C21.8826 5.05242 21.8719 5.06687 21.8612 5.08087L21.8578 5.08516C21.8487 5.09712 21.8394 5.10909 21.8296 5.1206C21.8276 5.12351 21.8254 5.12622 21.8229 5.12873C21.8125 5.1416 21.8018 5.15424 21.7906 5.16665C21.6306 5.34878 21.4331 5.49487 21.2114 5.59512C20.9898 5.69538 20.749 5.74749 20.5054 5.74793C20.2617 5.74838 20.0208 5.69717 19.7988 5.59773C19.5767 5.4983 19.3787 5.35293 19.2181 5.1714C19.2071 5.1592 19.1952 5.14656 19.1859 5.13415C19.1766 5.12173 19.1693 5.11406 19.1613 5.10367C19.1591 5.10074 19.1565 5.09803 19.1545 5.09509C19.149 5.0881 19.1433 5.08109 19.1381 5.07387C19.1328 5.06665 19.1244 5.05604 19.1178 5.047C19.1112 5.03798 19.1094 5.03526 19.1055 5.0294C19.1016 5.02352 19.093 5.01224 19.0875 5.00344C19.0837 4.99825 19.0802 4.99283 19.0766 4.98763C19.0679 4.97454 19.0595 4.96167 19.0513 4.94857C19.0431 4.93548 19.0314 4.91585 19.0217 4.89936C19.0153 4.88852 19.0092 4.87679 19.0035 4.86663C19.0016 4.86369 19.0001 4.86053 18.9982 4.85737C18.9964 4.85421 18.9936 4.84924 18.9916 4.84519C18.9634 4.80003 18.9348 4.75488 18.9059 4.70973L18.8484 4.62055V4.61942C18.8242 4.5824 18.7996 4.54582 18.7747 4.50903C18.7598 4.48645 18.7447 4.46388 18.7292 4.44288C18.7138 4.42189 18.7 4.40021 18.685 4.37877C18.6084 4.26905 18.5294 4.16069 18.4481 4.05368L18.3996 3.99024C18.367 3.94802 18.3342 3.90626 18.3007 3.86449C18.284 3.84358 18.2674 3.8228 18.2508 3.80219C18.2017 3.74199 18.1519 3.68178 18.1017 3.62158L18.0459 3.55634C18.0285 3.53632 18.011 3.51622 17.9932 3.49606C17.9757 3.4762 17.9582 3.4561 17.9403 3.43623C17.926 3.41998 17.9115 3.4035 17.8967 3.38725C17.8819 3.37099 17.8688 3.35654 17.855 3.34209L17.8281 3.31319C17.8119 3.29537 17.7953 3.27775 17.7789 3.26015C17.7625 3.24253 17.7424 3.22109 17.7242 3.20167C17.6875 3.16307 17.6504 3.12469 17.6133 3.08653C17.5946 3.0678 17.576 3.04861 17.5572 3.02965L17.5008 2.97321L17.4438 2.91722L17.3862 2.86146C17.3282 2.80547 17.2689 2.75039 17.2094 2.69598C17.1903 2.67838 17.1714 2.66099 17.1521 2.6436C17.1125 2.60794 17.0727 2.57257 17.0324 2.5375C17.0131 2.52034 16.9933 2.50341 16.9737 2.48625L16.9112 2.4332C16.8933 2.41785 16.8755 2.40273 16.8576 2.38805C16.8347 2.36864 16.812 2.34945 16.7892 2.3307L16.7273 2.28014C16.4583 2.06303 16.1785 1.8596 15.8888 1.6706L15.8229 1.62815C15.757 1.58601 15.6907 1.5444 15.6239 1.50331L15.5803 1.47938C15.5669 1.47102 15.5532 1.46289 15.5394 1.45477C15.4765 1.41715 15.4132 1.3802 15.3493 1.34392C15.3266 1.33083 15.3039 1.31819 15.281 1.30554C15.2583 1.2929 15.232 1.27801 15.2075 1.26468L15.1432 1.22969L15.0772 1.19425C14.972 1.13856 14.8656 1.08461 14.7583 1.03238C14.7341 1.02042 14.7097 1.00981 14.6854 0.997168C14.661 0.98452 14.643 0.976848 14.6216 0.967137C14.5449 0.930787 14.4671 0.8958 14.3893 0.861711C14.3649 0.851102 14.3403 0.83913 14.3157 0.829873C14.291 0.820627 14.2655 0.808433 14.2405 0.798046C14.2154 0.787658 14.1904 0.777049 14.1653 0.766894C14.1402 0.756729 14.115 0.746352 14.0897 0.736419C14.0644 0.726486 14.0442 0.718582 14.0227 0.70978L13.9772 0.692397L13.9216 0.671169C13.8971 0.661468 13.8722 0.652211 13.8472 0.643177C13.7241 0.598024 13.5999 0.554527 13.4743 0.512686C13.4237 0.496212 13.3734 0.47996 13.3224 0.464152C13.2425 0.43932 13.1619 0.415386 13.0809 0.39236C13.0545 0.384689 13.0281 0.377158 13.0016 0.369789C12.8897 0.338779 12.7771 0.309889 12.6638 0.283098L12.6003 0.267967C12.5521 0.256681 12.5037 0.24585 12.4549 0.235463C12.4322 0.230042 12.4073 0.225076 12.3834 0.219887L12.3151 0.205664C12.2713 0.196629 12.2272 0.188049 12.1829 0.179923L12.1126 0.166609C12.0702 0.159159 12.0276 0.151477 11.985 0.144027L11.9167 0.132742L11.8484 0.121911L11.78 0.111745L11.7251 0.103619L11.6766 0.096846L11.6131 0.0903048L11.5427 0.0810483L11.5198 0.0783328L11.4686 0.0722358L11.4146 0.0659166L11.3349 0.0573364H11.3281C11.3053 0.0550853 11.2825 0.0526022 11.2611 0.0505631C11.2397 0.0485341 11.2156 0.0460508 11.1928 0.0442439L11.1311 0.0386012L11.0855 0.0352195C11.0481 0.03206 11.0108 0.0293445 10.9734 0.0268613L10.9199 0.0225712C10.8647 0.0189574 10.8092 0.0157978 10.7536 0.0133146C10.6981 0.0108314 10.6484 0.00858032 10.5955 0.00677342L10.5095 0.00315964H10.5026C10.4509 0.00315964 10.3989 0.00113059 10.3466 0.000898421C10.3145 0.00030285 10.2824 0 10.2502 0C4.58914 0 5.43913e-07 4.54854 5.43913e-07 10.159V12.9668C-0.000187266 12.4793 0.0482624 11.993 0.144643 11.5149C0.144643 11.5116 0.146237 11.5079 0.147148 11.5045C0.157854 11.4515 0.169927 11.3989 0.181088 11.3465C0.184732 11.3305 0.188605 11.3144 0.192477 11.2985C0.201816 11.2587 0.211383 11.2187 0.221406 11.179C0.225961 11.1605 0.230973 11.142 0.235755 11.1232C0.245551 11.0865 0.255118 11.0491 0.265368 11.0126C0.270834 10.9932 0.276301 10.9742 0.281996 10.9551C0.292246 10.9187 0.302723 10.8828 0.313658 10.8469C0.319352 10.828 0.325274 10.809 0.331196 10.79C0.342586 10.7541 0.353975 10.7182 0.36582 10.6823C0.371742 10.664 0.377892 10.6458 0.384042 10.6277C0.396343 10.591 0.409326 10.5543 0.422082 10.518C0.428232 10.501 0.434382 10.4842 0.440305 10.467C0.454427 10.4288 0.468778 10.3909 0.483355 10.3529C0.488822 10.3381 0.494517 10.3232 0.500211 10.3078C0.516383 10.2662 0.53324 10.2249 0.550095 10.184C1.65689 7.50323 4.31444 5.61478 7.41706 5.61478C8.91047 5.61226 10.3695 6.05883 11.6014 6.8955C11.6242 6.91085 11.647 6.92598 11.6686 6.94065C11.6903 6.95533 11.7167 6.97406 11.7404 6.99122C11.7641 7.00838 11.786 7.02396 11.8087 7.04066C11.8315 7.05737 11.8543 7.07408 11.877 7.09078L11.8791 7.09213L11.9445 7.1418C11.9693 7.16099 11.9943 7.18018 12.0191 7.20004C12.0388 7.21494 12.058 7.2303 12.0773 7.2452C12.0925 7.25716 12.1073 7.26935 12.1228 7.28155C12.1684 7.31856 12.214 7.35627 12.2583 7.39442C12.2743 7.40774 12.2903 7.42152 12.306 7.43551C12.3216 7.44951 12.3406 7.46554 12.3577 7.48066L12.4085 7.52581C12.4258 7.54117 12.4426 7.55652 12.4592 7.57096L12.4616 7.57322C12.5137 7.61679 12.564 7.66217 12.6135 7.70867C12.6308 7.72516 12.6481 7.74209 12.6652 7.75879L12.6772 7.77099C12.7041 7.79762 12.7304 7.82494 12.7561 7.85248C12.7665 7.86376 12.7766 7.87506 12.787 7.88657C12.8048 7.90621 12.8224 7.92562 12.8399 7.94549C12.8574 7.96536 12.8725 7.98342 12.8884 8.00238L12.892 8.00645L12.8952 8.01051C12.9046 8.02202 12.9141 8.03309 12.9233 8.04483C12.9415 8.0674 12.959 8.08998 12.9761 8.11255C12.9932 8.13513 13.0139 8.16245 13.032 8.18772L13.0581 8.22475C13.0683 8.23943 13.0786 8.25387 13.0886 8.26877C13.0986 8.28367 13.1089 8.29835 13.1182 8.31393C13.1275 8.3295 13.1342 8.33854 13.141 8.35095C13.1459 8.35779 13.1504 8.36487 13.1545 8.37217C13.1631 8.38595 13.1716 8.39972 13.18 8.41349C13.1884 8.42725 13.1968 8.44148 13.2053 8.45548L14.2426 10.083L15.6714 12.3247C15.7029 12.3748 15.7348 12.4247 15.7674 12.4737C15.8166 12.5474 15.8673 12.6197 15.9195 12.6909C15.9722 12.762 16.0258 12.832 16.0817 12.9007C16.1186 12.9458 16.1566 12.9909 16.1956 13.036C16.7275 13.652 17.3876 14.1464 18.1306 14.4854C18.8736 14.8245 19.6818 15 20.4998 15C21.3177 15 22.1259 14.8245 22.8689 14.4854C23.6119 14.1464 24.272 13.652 24.8039 13.036C24.8425 12.9909 24.8805 12.9458 24.9178 12.9007C24.9734 12.832 25.0274 12.7621 25.0798 12.6909C25.1146 12.6435 25.1488 12.5955 25.1825 12.5469C25.2326 12.4742 25.2811 12.4001 25.3279 12.3247L26.7567 10.083L27.7943 8.45457C27.8046 8.43764 27.8146 8.42071 27.8248 8.40401L27.8446 8.37172C27.8533 8.35795 27.8619 8.34418 27.871 8.33041C27.8722 8.32815 27.8738 8.32612 27.8751 8.32386C27.8881 8.30377 27.9016 8.28367 27.915 8.26404C27.9284 8.24439 27.9435 8.2225 27.958 8.20218C27.9727 8.18186 27.984 8.16605 27.9972 8.14822L28.0077 8.13422C28.0207 8.11684 28.0341 8.09924 28.0477 8.08185C28.0615 8.06447 28.0747 8.04776 28.0883 8.03083C28.0976 8.01954 28.1071 8.00825 28.1164 7.99719C28.13 7.98049 28.1441 7.96423 28.1583 7.9482C28.1758 7.92811 28.1933 7.90847 28.2111 7.88883C28.2216 7.87754 28.2316 7.86626 28.2423 7.85474C28.2799 7.8141 28.3189 7.7746 28.3588 7.73622C28.379 7.7168 28.3992 7.69693 28.42 7.67798C28.4325 7.66624 28.4453 7.65539 28.458 7.64343C28.479 7.62492 28.4999 7.60641 28.5213 7.58812C28.5271 7.58293 28.533 7.57774 28.5389 7.57299C29.909 6.30967 31.7116 5.60855 33.5829 5.61117C36.6858 5.61117 39.343 7.49963 40.4499 10.1805C40.467 10.2214 40.4837 10.2627 40.4998 10.3042C40.5057 10.3186 40.5112 10.3335 40.5169 10.3494C40.5312 10.3873 40.5456 10.4253 40.5597 10.4634C40.5659 10.4805 40.5717 10.4975 40.5778 10.5143C40.5908 10.5508 40.6036 10.5873 40.6162 10.6241C40.6223 10.6421 40.6282 10.6604 40.6342 10.6787C40.6463 10.7146 40.6569 10.7505 40.669 10.7864C40.6747 10.8054 40.6806 10.8243 40.6865 10.8433C40.6975 10.8792 40.7079 10.9151 40.7182 10.9514C40.7237 10.9706 40.7294 10.9896 40.7346 11.009C40.7448 11.0456 40.7545 11.0829 40.7645 11.1196C40.769 11.1384 40.774 11.1568 40.7788 11.1754C40.7888 11.2151 40.7982 11.2551 40.8075 11.2948C40.8114 11.3109 40.8152 11.3268 40.8189 11.3429C40.831 11.3955 40.8416 11.4481 40.8531 11.501C40.8531 11.5043 40.8546 11.5079 40.8554 11.5113C40.9518 11.9893 41.0002 12.4757 41 12.9631V10.159C41.0009 4.54854 36.4117 0 30.7506 0Z" fill="url(#paint6_linear_4_45)"/>
<path d="M30 6.89274C29.6906 7.09824 29.3972 7.32561 29.1222 7.57298C28.818 7.8232 28.5603 8.12202 28.3598 8.45658L27.3016 10.0836L25.845 12.3257C25.3276 13.1429 24.6032 13.8179 23.7408 14.286C22.8786 14.7542 21.9071 15 20.9192 15C19.9312 15 18.9598 14.7542 18.0974 14.286C17.2351 13.8179 16.5106 13.1429 15.9932 12.3257L14.5353 10.0845L13.4764 8.45658C13.2764 8.12305 13.0195 7.825 12.7166 7.57524C11.3187 6.31218 9.47934 5.61124 7.5699 5.61395C4.40411 5.61395 1.69248 7.5019 0.563153 10.182C0.545953 10.2229 0.528755 10.2642 0.512252 10.3057C0.506442 10.3202 0.500631 10.335 0.495054 10.3508C0.479559 10.3888 0.464916 10.4267 0.451126 10.4648C0.445084 10.4819 0.438808 10.4989 0.432532 10.5158C0.419517 10.5522 0.406269 10.5887 0.393719 10.6255C0.387443 10.6436 0.381168 10.6619 0.375125 10.6801C0.362807 10.7161 0.351883 10.7519 0.339798 10.7878C0.333754 10.8068 0.327712 10.8257 0.321901 10.8446C0.310745 10.8806 0.300053 10.9165 0.289595 10.9528C0.283784 10.972 0.278207 10.991 0.272628 11.0103C0.262169 11.0469 0.252408 11.0841 0.242414 11.1209C0.237533 11.1396 0.232419 11.1582 0.227771 11.1767C0.217545 11.2164 0.207783 11.2564 0.198253 11.296C0.194302 11.3121 0.190351 11.3281 0.186633 11.3442C0.174547 11.3968 0.163391 11.4493 0.152002 11.5021C0.152002 11.5055 0.150143 11.5091 0.149446 11.5125C0.0505251 11.9901 0.000466504 12.4761 0 12.9633V10.1563C0 4.54732 4.68256 0 10.4589 0C14.1311 0 17.3618 1.83852 19.2283 4.61999C19.2784 4.69522 19.3274 4.77045 19.3755 4.84568C19.3776 4.84974 19.3799 4.85381 19.3822 4.85787C19.4443 4.97048 19.5196 5.07581 19.6065 5.17181C20.9833 6.99679 23.2066 8.18169 25.7149 8.18169C27.2449 8.18455 28.7395 7.73497 30 6.89274Z" fill="url(#paint7_linear_4_45)"/>
<defs>
<linearGradient id="paint0_linear_4_45" x1="20.4999" y1="35" x2="20.4999" y2="6.59236" gradientUnits="userSpaceOnUse">
<stop offset="0.15" stop-color="#37B2FF"/>
<stop offset="1" stop-color="#0074BD"/>
</linearGradient>
<linearGradient id="paint1_linear_4_45" x1="34.1274" y1="19.4618" x2="10.3946" y2="36.7145" gradientUnits="userSpaceOnUse">
<stop stop-color="#96E6A1"/>
<stop offset="1" stop-color="#00A378"/>
</linearGradient>
<linearGradient id="paint2_linear_4_45" x1="20.4134" y1="7.50211" x2="48.6402" y2="7.50211" gradientUnits="userSpaceOnUse">
<stop stop-color="#96E6A1"/>
<stop offset="1" stop-color="#00A378"/>
</linearGradient>
<linearGradient id="paint3_linear_4_45" x1="5.27825" y1="8.21622" x2="40.0359" y2="5.65961" gradientUnits="userSpaceOnUse">
<stop stop-color="#96E6A1"/>
<stop offset="1" stop-color="#00A378"/>
</linearGradient>
<linearGradient id="paint4_linear_4_45" x1="20.4999" y1="35" x2="20.4999" y2="6.59236" gradientUnits="userSpaceOnUse">
<stop offset="0.15" stop-color="#37B2FF"/>
<stop offset="1" stop-color="#0074BD"/>
</linearGradient>
<linearGradient id="paint5_linear_4_45" x1="34.1274" y1="19.4618" x2="10.3946" y2="36.7145" gradientUnits="userSpaceOnUse">
<stop stop-color="#96E6A1"/>
<stop offset="1" stop-color="#00A378"/>
</linearGradient>
<linearGradient id="paint6_linear_4_45" x1="20.4134" y1="7.50211" x2="48.6402" y2="7.50211" gradientUnits="userSpaceOnUse">
<stop stop-color="#96E6A1"/>
<stop offset="1" stop-color="#00A378"/>
</linearGradient>
<linearGradient id="paint7_linear_4_45" x1="5.27825" y1="8.21622" x2="40.0359" y2="5.65961" gradientUnits="userSpaceOnUse">
<stop stop-color="#96E6A1"/>
<stop offset="1" stop-color="#00A378"/>
</linearGradient>
</defs>
</svg>
